<svg width="704" height="704" viewBox="0 0 704 704" fill="none" xmlns="http://www.w3.org/2000/svg">
<path d="M677.332 435.885C676.264 432.416 674.522 429.192 672.207 426.398C669.892 423.603 667.048 421.292 663.839 419.597C660.63 417.902 657.118 416.856 653.505 416.519C649.891 416.182 646.247 416.561 642.78 417.634C593.38 431.212 541.264 431.458 491.737 418.347C442.211 405.236 397.043 379.236 360.832 342.994C324.621 306.752 298.659 261.562 285.59 212.025C272.522 162.488 272.812 110.372 286.432 60.9838C287.864 56.2083 287.976 51.1344 286.756 46.3005C285.536 41.4667 283.03 37.0533 279.504 33.5287C275.979 30.0042 271.564 27.5002 266.73 26.2823C261.895 25.0644 256.822 25.1782 252.047 26.6116C194.022 42.857 141.263 74.0126 99.0172 116.979C56.7718 159.945 26.5132 213.224 11.2518 271.515C-4.00956 329.806 -3.74178 391.077 12.0285 449.233C27.7989 507.388 58.522 560.401 101.141 602.996C143.761 645.591 196.79 676.285 254.955 692.022C313.119 707.76 374.391 707.993 432.673 692.699C490.956 677.405 544.218 647.116 587.16 604.847C630.103 562.577 661.229 509.8 677.442 451.767C678.961 446.576 678.923 441.054 677.332 435.885V435.885Z" fill="white"/>
<path d="M704 220.53C704.013 222.513 703.409 224.45 702.272 226.074C701.135 227.698 699.52 228.928 697.653 229.593L659.193 243.578L645.207 282.039C644.53 283.899 643.298 285.506 641.676 286.641C640.055 287.777 638.124 288.386 636.144 288.386C634.165 288.386 632.234 287.777 630.612 286.641C628.991 285.506 627.759 283.899 627.082 282.039L613.096 243.578L574.636 229.593C572.776 228.916 571.169 227.684 570.034 226.062C568.898 224.441 568.289 222.51 568.289 220.53C568.289 218.551 568.898 216.619 570.034 214.998C571.169 213.377 572.776 212.144 574.636 211.468L613.096 197.482L627.082 159.022C627.758 157.162 628.991 155.555 630.612 154.419C632.234 153.284 634.165 152.675 636.144 152.675C638.124 152.675 640.055 153.284 641.676 154.419C643.298 155.555 644.53 157.162 645.207 159.022L659.193 197.482L697.653 211.468C699.52 212.133 701.135 213.362 702.272 214.986C703.409 216.61 704.013 218.548 704 220.53V220.53Z" fill="#FFF3B2"/>
<path d="M704 33.9277C704.007 34.919 703.705 35.8877 703.136 36.6997C702.567 37.5116 701.76 38.1265 700.826 38.459L681.596 45.4519L674.603 64.682C674.265 65.612 673.649 66.4154 672.838 66.9832C672.028 67.5509 671.062 67.8555 670.072 67.8555C669.083 67.8555 668.117 67.5509 667.306 66.9832C666.496 66.4154 665.879 65.612 665.541 64.682L658.548 45.4519L639.318 38.459C638.388 38.1207 637.585 37.5044 637.017 36.6938C636.449 35.8831 636.145 34.9174 636.145 33.9278C636.145 32.9381 636.449 31.9724 637.017 31.1617C637.585 30.3511 638.388 29.7348 639.318 29.3965L658.548 22.4036L665.541 3.1735C665.879 2.24344 666.496 1.44001 667.306 0.872275C668.117 0.304539 669.083 0 670.072 0C671.062 0 672.028 0.304539 672.838 0.872275C673.649 1.44001 674.265 2.24344 674.603 3.1735L681.596 22.4036L700.826 29.3965C701.76 29.729 702.567 30.3439 703.136 31.1558C703.705 31.9677 704.007 32.9365 704 33.9277V33.9277Z" fill="#FFF3B2"/>
<path d="M593.734 101.783C593.755 104.757 592.849 107.663 591.143 110.099C589.437 112.535 587.015 114.379 584.214 115.377L526.524 136.356L505.545 194.046C504.53 196.836 502.681 199.246 500.25 200.95C497.818 202.653 494.921 203.566 491.952 203.566C488.982 203.566 486.085 202.653 483.653 200.95C481.222 199.246 479.373 196.836 478.358 194.046L457.379 136.356L399.689 115.377C396.899 114.362 394.488 112.513 392.785 110.081C391.082 107.649 390.168 104.752 390.168 101.783C390.168 98.8142 391.082 95.9171 392.785 93.4852C394.488 91.0533 396.899 89.2044 399.689 88.1895L457.379 67.2108L478.358 9.5205C479.373 6.73032 481.222 4.32003 483.653 2.61682C486.085 0.913617 488.982 0 491.951 0C494.92 0 497.818 0.913617 500.25 2.61682C502.681 4.32003 504.53 6.73032 505.545 9.5205L526.524 67.2108L584.214 88.1894C587.015 89.187 589.437 91.0316 591.143 93.4674C592.849 95.9032 593.755 98.8095 593.734 101.783Z" fill="#FFF3B2"/>
</svg>
